<svg xmlns="http://www.w3.org/2000/svg" viewBox="0 0 690 940" width="69.0mm" height="94.0mm" font-family="DejaVu Sans, Arial, sans-serif">
<title>Mission L2-02 Mine Boss 5</title>
<rect id="bleed" x="0" y="0" width="690" height="940" fill="#6d3a8c"/>
<rect id="trim" x="30" y="30" width="630" height="880" rx="26" fill="#f4ead7" stroke="#2b2233" stroke-width="4"/>
<rect x="54" y="54" width="582" height="96" rx="8" fill="#6d3a8c"/>
<text x="345.0" y="120" text-anchor="middle" font-size="46" font-weight="bold" fill="#f4ead7">Mine Boss 5</text>
<g id="art-slot"><rect x="54" y="170" width="582" height="380" rx="8" fill="#ebe1cd" stroke="#2b2233" stroke-width="3" stroke-dasharray="14 8"/>
<text class="placeholder" x="345.0" y="370" text-anchor="middle" font-size="26" fill="#9a8f7c">ART SLOT 582 x 380</text></g>
<rect x="54" y="570" width="582" height="150" rx="8" fill="#fffaf0" stroke="#2b2233" stroke-width="3"/>
<g transform="translate(140,645) scale(1.5333333333333334)" stroke="#2b2233" stroke-width="3" stroke-linejoin="round" fill="none"><path d="M-22 26 L0 -26 L22 26 Z" fill="#b9a27a"/><rect x="-6" y="-34" width="12" height="14" fill="#8a7a62"/></g>
<text x="240" y="678" font-size="92" font-weight="bold" fill="#2b2233">5</text>
<text x="74" y="760" font-size="28" fill="#2b2233">Control 5 Extractors.</text>
<g id="cost"><circle cx="96" cy="848" r="38" fill="#e6c455" stroke="#2b2233" stroke-width="4"/>
<circle cx="96" cy="848" r="29" fill="none" stroke="#2b2233" stroke-width="2.5"/>
<text x="96" y="863" text-anchor="middle" font-size="42" font-weight="bold" fill="#2b2233">5</text></g>
<text x="148" y="840" font-size="22" font-weight="bold" fill="#2b2233">Cost: 5 Credits</text>
<text x="148" y="866" font-size="17" fill="#2b2233">+1 for each mission you bought</text>
<text x="148" y="888" font-size="15" fill="#7d7388">Level 2  -  02/20</text>
<circle cx="582" cy="848" r="44" fill="#6d3a8c" stroke="#2b2233" stroke-width="4"/>
<text x="582" y="862" text-anchor="middle" font-size="48" font-weight="bold" fill="#f4ead7">2</text>
<text x="582" y="884" text-anchor="middle" font-size="16" fill="#f4ead7">VP</text>
</svg>