<svg xmlns="http://www.w3.org/2000/svg" viewBox="0 0 1485 1050" width="297mm" height="210mm" font-family="DejaVu Sans, Arial, sans-serif">
<title>Player board RED advanced</title>
<rect width="1485" height="1050" fill="#f4ead7"/>
<rect x="12" y="12" width="1461" height="1026" rx="18" fill="none" stroke="#c0392b" stroke-width="12"/>
<rect x="30" y="30" width="1425" height="130" rx="10" fill="#c0392b"/>
<text x="60" y="110" font-size="54" font-weight="bold" text-anchor="start" fill="#f4ead7">COMMANDER BOARD</text>
<text x="60" y="145" font-size="28" font-weight="normal" text-anchor="start" fill="#f4ead7">RED  -  ADVANCED SIDE  (adds Docks, Ports and the market)</text>
<g id="art-slot"><rect x="1155" y="40" width="280" height="110" rx="8" fill="none" stroke="#f4ead7" stroke-width="3" stroke-dasharray="12 8"/><text class="placeholder" x="1295" y="102" text-anchor="middle" font-size="22" fill="#f4ead7">FACTION ART SLOT</text></g>
<rect x="30" y="190" width="450" height="830" rx="10" fill="#fffaf0" stroke="#2b2233" stroke-width="3"/><text x="50" y="230" font-size="30" font-weight="bold" text-anchor="start" fill="#c0392b">Your supply</text>
<g transform="translate(100.0,262.0) scale(0.625)" stroke="#2b2233" stroke-width="3" stroke-linejoin="round" stroke-linecap="round" fill="none"><circle cy="6" r="22" fill="#d9d2e3"/><path d="M0 -16 V-24"/><circle cy="-27" r="4" fill="#2b2233"/><circle cx="-8" cy="4" r="4" fill="#2b2233"/><circle cx="8" cy="4" r="4" fill="#2b2233"/><path d="M-7 15 H7" fill="none"/></g><text x="130" y="270" font-size="24" font-weight="bold" text-anchor="start" fill="#2b2233">Bots (20)</text>
<circle cx="80" cy="325" r="28" fill="#ebe1cd" stroke="#2b2233" stroke-width="2.5" stroke-dasharray="6 5"/><g opacity="0.28" transform="translate(80.0,325.0) scale(0.656)" stroke="#2b2233" stroke-width="3" stroke-linejoin="round" stroke-linecap="round" fill="none"><circle cy="6" r="22" fill="#d9d2e3"/><path d="M0 -16 V-24"/><circle cy="-27" r="4" fill="#2b2233"/><circle cx="-8" cy="4" r="4" fill="#2b2233"/><circle cx="8" cy="4" r="4" fill="#2b2233"/><path d="M-7 15 H7" fill="none"/></g><circle cx="160" cy="325" r="28" fill="#ebe1cd" stroke="#2b2233" stroke-width="2.5" stroke-dasharray="6 5"/><g opacity="0.28" transform="translate(160.0,325.0) scale(0.656)" stroke="#2b2233" stroke-width="3" stroke-linejoin="round" stroke-linecap="round" fill="none"><circle cy="6" r="22" fill="#d9d2e3"/><path d="M0 -16 V-24"/><circle cy="-27" r="4" fill="#2b2233"/><circle cx="-8" cy="4" r="4" fill="#2b2233"/><circle cx="8" cy="4" r="4" fill="#2b2233"/><path d="M-7 15 H7" fill="none"/></g><circle cx="240" cy="325" r="28" fill="#ebe1cd" stroke="#2b2233" stroke-width="2.5" stroke-dasharray="6 5"/><g opacity="0.28" transform="translate(240.0,325.0) scale(0.656)" stroke="#2b2233" stroke-width="3" stroke-linejoin="round" stroke-linecap="round" fill="none"><circle cy="6" r="22" fill="#d9d2e3"/><path d="M0 -16 V-24"/><circle cy="-27" r="4" fill="#2b2233"/><circle cx="-8" cy="4" r="4" fill="#2b2233"/><circle cx="8" cy="4" r="4" fill="#2b2233"/><path d="M-7 15 H7" fill="none"/></g><circle cx="320" cy="325" r="28" fill="#ebe1cd" stroke="#2b2233" stroke-width="2.5" stroke-dasharray="6 5"/><g opacity="0.28" transform="translate(320.0,325.0) scale(0.656)" stroke="#2b2233" stroke-width="3" stroke-linejoin="round" stroke-linecap="round" fill="none"><circle cy="6" r="22" fill="#d9d2e3"/><path d="M0 -16 V-24"/><circle cy="-27" r="4" fill="#2b2233"/><circle cx="-8" cy="4" r="4" fill="#2b2233"/><circle cx="8" cy="4" r="4" fill="#2b2233"/><path d="M-7 15 H7" fill="none"/></g><circle cx="400" cy="325" r="28" fill="#ebe1cd" stroke="#2b2233" stroke-width="2.5" stroke-dasharray="6 5"/><g opacity="0.28" transform="translate(400.0,325.0) scale(0.656)" stroke="#2b2233" stroke-width="3" stroke-linejoin="round" stroke-linecap="round" fill="none"><circle cy="6" r="22" fill="#d9d2e3"/><path d="M0 -16 V-24"/><circle cy="-27" r="4" fill="#2b2233"/><circle cx="-8" cy="4" r="4" fill="#2b2233"/><circle cx="8" cy="4" r="4" fill="#2b2233"/><path d="M-7 15 H7" fill="none"/></g><circle cx="80" cy="405" r="28" fill="#ebe1cd" stroke="#2b2233" stroke-width="2.5" stroke-dasharray="6 5"/><g opacity="0.28" transform="translate(80.0,405.0) scale(0.656)" stroke="#2b2233" stroke-width="3" stroke-linejoin="round" stroke-linecap="round" fill="none"><circle cy="6" r="22" fill="#d9d2e3"/><path d="M0 -16 V-24"/><circle cy="-27" r="4" fill="#2b2233"/><circle cx="-8" cy="4" r="4" fill="#2b2233"/><circle cx="8" cy="4" r="4" fill="#2b2233"/><path d="M-7 15 H7" fill="none"/></g><circle cx="160" cy="405" r="28" fill="#ebe1cd" stroke="#2b2233" stroke-width="2.5" stroke-dasharray="6 5"/><g opacity="0.28" transform="translate(160.0,405.0) scale(0.656)" stroke="#2b2233" stroke-width="3" stroke-linejoin="round" stroke-linecap="round" fill="none"><circle cy="6" r="22" fill="#d9d2e3"/><path d="M0 -16 V-24"/><circle cy="-27" r="4" fill="#2b2233"/><circle cx="-8" cy="4" r="4" fill="#2b2233"/><circle cx="8" cy="4" r="4" fill="#2b2233"/><path d="M-7 15 H7" fill="none"/></g><circle cx="240" cy="405" r="28" fill="#ebe1cd" stroke="#2b2233" stroke-width="2.5" stroke-dasharray="6 5"/><g opacity="0.28" transform="translate(240.0,405.0) scale(0.656)" stroke="#2b2233" stroke-width="3" stroke-linejoin="round" stroke-linecap="round" fill="none"><circle cy="6" r="22" fill="#d9d2e3"/><path d="M0 -16 V-24"/><circle cy="-27" r="4" fill="#2b2233"/><circle cx="-8" cy="4" r="4" fill="#2b2233"/><circle cx="8" cy="4" r="4" fill="#2b2233"/><path d="M-7 15 H7" fill="none"/></g><circle cx="320" cy="405" r="28" fill="#ebe1cd" stroke="#2b2233" stroke-width="2.5" stroke-dasharray="6 5"/><g opacity="0.28" transform="translate(320.0,405.0) scale(0.656)" stroke="#2b2233" stroke-width="3" stroke-linejoin="round" stroke-linecap="round" fill="none"><circle cy="6" r="22" fill="#d9d2e3"/><path d="M0 -16 V-24"/><circle cy="-27" r="4" fill="#2b2233"/><circle cx="-8" cy="4" r="4" fill="#2b2233"/><circle cx="8" cy="4" r="4" fill="#2b2233"/><path d="M-7 15 H7" fill="none"/></g><circle cx="400" cy="405" r="28" fill="#ebe1cd" stroke="#2b2233" stroke-width="2.5" stroke-dasharray="6 5"/><g opacity="0.28" transform="translate(400.0,405.0) scale(0.656)" stroke="#2b2233" stroke-width="3" stroke-linejoin="round" stroke-linecap="round" fill="none"><circle cy="6" r="22" fill="#d9d2e3"/><path d="M0 -16 V-24"/><circle cy="-27" r="4" fill="#2b2233"/><circle cx="-8" cy="4" r="4" fill="#2b2233"/><circle cx="8" cy="4" r="4" fill="#2b2233"/><path d="M-7 15 H7" fill="none"/></g><circle cx="80" cy="485" r="28" fill="#ebe1cd" stroke="#2b2233" stroke-width="2.5" stroke-dasharray="6 5"/><g opacity="0.28" transform="translate(80.0,485.0) scale(0.656)" stroke="#2b2233" stroke-width="3" stroke-linejoin="round" stroke-linecap="round" fill="none"><circle cy="6" r="22" fill="#d9d2e3"/><path d="M0 -16 V-24"/><circle cy="-27" r="4" fill="#2b2233"/><circle cx="-8" cy="4" r="4" fill="#2b2233"/><circle cx="8" cy="4" r="4" fill="#2b2233"/><path d="M-7 15 H7" fill="none"/></g><circle cx="160" cy="485" r="28" fill="#ebe1cd" stroke="#2b2233" stroke-width="2.5" stroke-dasharray="6 5"/><g opacity="0.28" transform="translate(160.0,485.0) scale(0.656)" stroke="#2b2233" stroke-width="3" stroke-linejoin="round" stroke-linecap="round" fill="none"><circle cy="6" r="22" fill="#d9d2e3"/><path d="M0 -16 V-24"/><circle cy="-27" r="4" fill="#2b2233"/><circle cx="-8" cy="4" r="4" fill="#2b2233"/><circle cx="8" cy="4" r="4" fill="#2b2233"/><path d="M-7 15 H7" fill="none"/></g><circle cx="240" cy="485" r="28" fill="#ebe1cd" stroke="#2b2233" stroke-width="2.5" stroke-dasharray="6 5"/><g opacity="0.28" transform="translate(240.0,485.0) scale(0.656)" stroke="#2b2233" stroke-width="3" stroke-linejoin="round" stroke-linecap="round" fill="none"><circle cy="6" r="22" fill="#d9d2e3"/><path d="M0 -16 V-24"/><circle cy="-27" r="4" fill="#2b2233"/><circle cx="-8" cy="4" r="4" fill="#2b2233"/><circle cx="8" cy="4" r="4" fill="#2b2233"/><path d="M-7 15 H7" fill="none"/></g><circle cx="320" cy="485" r="28" fill="#ebe1cd" stroke="#2b2233" stroke-width="2.5" stroke-dasharray="6 5"/><g opacity="0.28" transform="translate(320.0,485.0) scale(0.656)" stroke="#2b2233" stroke-width="3" stroke-linejoin="round" stroke-linecap="round" fill="none"><circle cy="6" r="22" fill="#d9d2e3"/><path d="M0 -16 V-24"/><circle cy="-27" r="4" fill="#2b2233"/><circle cx="-8" cy="4" r="4" fill="#2b2233"/><circle cx="8" cy="4" r="4" fill="#2b2233"/><path d="M-7 15 H7" fill="none"/></g><circle cx="400" cy="485" r="28" fill="#ebe1cd" stroke="#2b2233" stroke-width="2.5" stroke-dasharray="6 5"/><g opacity="0.28" transform="translate(400.0,485.0) scale(0.656)" stroke="#2b2233" stroke-width="3" stroke-linejoin="round" stroke-linecap="round" fill="none"><circle cy="6" r="22" fill="#d9d2e3"/><path d="M0 -16 V-24"/><circle cy="-27" r="4" fill="#2b2233"/><circle cx="-8" cy="4" r="4" fill="#2b2233"/><circle cx="8" cy="4" r="4" fill="#2b2233"/><path d="M-7 15 H7" fill="none"/></g><circle cx="80" cy="565" r="28" fill="#ebe1cd" stroke="#2b2233" stroke-width="2.5" stroke-dasharray="6 5"/><g opacity="0.28" transform="translate(80.0,565.0) scale(0.656)" stroke="#2b2233" stroke-width="3" stroke-linejoin="round" stroke-linecap="round" fill="none"><circle cy="6" r="22" fill="#d9d2e3"/><path d="M0 -16 V-24"/><circle cy="-27" r="4" fill="#2b2233"/><circle cx="-8" cy="4" r="4" fill="#2b2233"/><circle cx="8" cy="4" r="4" fill="#2b2233"/><path d="M-7 15 H7" fill="none"/></g><circle cx="160" cy="565" r="28" fill="#ebe1cd" stroke="#2b2233" stroke-width="2.5" stroke-dasharray="6 5"/><g opacity="0.28" transform="translate(160.0,565.0) scale(0.656)" stroke="#2b2233" stroke-width="3" stroke-linejoin="round" stroke-linecap="round" fill="none"><circle cy="6" r="22" fill="#d9d2e3"/><path d="M0 -16 V-24"/><circle cy="-27" r="4" fill="#2b2233"/><circle cx="-8" cy="4" r="4" fill="#2b2233"/><circle cx="8" cy="4" r="4" fill="#2b2233"/><path d="M-7 15 H7" fill="none"/></g><circle cx="240" cy="565" r="28" fill="#ebe1cd" stroke="#2b2233" stroke-width="2.5" stroke-dasharray="6 5"/><g opacity="0.28" transform="translate(240.0,565.0) scale(0.656)" stroke="#2b2233" stroke-width="3" stroke-linejoin="round" stroke-linecap="round" fill="none"><circle cy="6" r="22" fill="#d9d2e3"/><path d="M0 -16 V-24"/><circle cy="-27" r="4" fill="#2b2233"/><circle cx="-8" cy="4" r="4" fill="#2b2233"/><circle cx="8" cy="4" r="4" fill="#2b2233"/><path d="M-7 15 H7" fill="none"/></g><circle cx="320" cy="565" r="28" fill="#ebe1cd" stroke="#2b2233" stroke-width="2.5" stroke-dasharray="6 5"/><g opacity="0.28" transform="translate(320.0,565.0) scale(0.656)" stroke="#2b2233" stroke-width="3" stroke-linejoin="round" stroke-linecap="round" fill="none"><circle cy="6" r="22" fill="#d9d2e3"/><path d="M0 -16 V-24"/><circle cy="-27" r="4" fill="#2b2233"/><circle cx="-8" cy="4" r="4" fill="#2b2233"/><circle cx="8" cy="4" r="4" fill="#2b2233"/><path d="M-7 15 H7" fill="none"/></g><circle cx="400" cy="565" r="28" fill="#ebe1cd" stroke="#2b2233" stroke-width="2.5" stroke-dasharray="6 5"/><g opacity="0.28" transform="translate(400.0,565.0) scale(0.656)" stroke="#2b2233" stroke-width="3" stroke-linejoin="round" stroke-linecap="round" fill="none"><circle cy="6" r="22" fill="#d9d2e3"/><path d="M0 -16 V-24"/><circle cy="-27" r="4" fill="#2b2233"/><circle cx="-8" cy="4" r="4" fill="#2b2233"/><circle cx="8" cy="4" r="4" fill="#2b2233"/><path d="M-7 15 H7" fill="none"/></g>
<g transform="translate(100.0,650.0) scale(0.625)" stroke="#2b2233" stroke-width="3" stroke-linejoin="round" stroke-linecap="round" fill="none"><rect x="-20" y="-10" width="40" height="38" fill="#d9d2e3"/><rect x="-14" y="-30" width="28" height="20" fill="#d9d2e3"/><rect x="-8" y="-24" width="16" height="6" fill="#2b2233"/><rect x="-32" y="-6" width="12" height="26" fill="#d9d2e3"/><rect x="20" y="-6" width="12" height="26" fill="#d9d2e3"/><path d="M-10 28 V32 M10 28 V32"/></g><text x="130" y="658" font-size="24" font-weight="bold" text-anchor="start" fill="#2b2233">Mechs (6)</text>
<circle cx="80" cy="705" r="28" fill="#ebe1cd" stroke="#2b2233" stroke-width="2.5" stroke-dasharray="6 5"/><g opacity="0.28" transform="translate(80.0,705.0) scale(0.656)" stroke="#2b2233" stroke-width="3" stroke-linejoin="round" stroke-linecap="round" fill="none"><rect x="-20" y="-10" width="40" height="38" fill="#d9d2e3"/><rect x="-14" y="-30" width="28" height="20" fill="#d9d2e3"/><rect x="-8" y="-24" width="16" height="6" fill="#2b2233"/><rect x="-32" y="-6" width="12" height="26" fill="#d9d2e3"/><rect x="20" y="-6" width="12" height="26" fill="#d9d2e3"/><path d="M-10 28 V32 M10 28 V32"/></g><circle cx="150" cy="705" r="28" fill="#ebe1cd" stroke="#2b2233" stroke-width="2.5" stroke-dasharray="6 5"/><g opacity="0.28" transform="translate(150.0,705.0) scale(0.656)" stroke="#2b2233" stroke-width="3" stroke-linejoin="round" stroke-linecap="round" fill="none"><rect x="-20" y="-10" width="40" height="38" fill="#d9d2e3"/><rect x="-14" y="-30" width="28" height="20" fill="#d9d2e3"/><rect x="-8" y="-24" width="16" height="6" fill="#2b2233"/><rect x="-32" y="-6" width="12" height="26" fill="#d9d2e3"/><rect x="20" y="-6" width="12" height="26" fill="#d9d2e3"/><path d="M-10 28 V32 M10 28 V32"/></g><circle cx="220" cy="705" r="28" fill="#ebe1cd" stroke="#2b2233" stroke-width="2.5" stroke-dasharray="6 5"/><g opacity="0.28" transform="translate(220.0,705.0) scale(0.656)" stroke="#2b2233" stroke-width="3" stroke-linejoin="round" stroke-linecap="round" fill="none"><rect x="-20" y="-10" width="40" height="38" fill="#d9d2e3"/><rect x="-14" y="-30" width="28" height="20" fill="#d9d2e3"/><rect x="-8" y="-24" width="16" height="6" fill="#2b2233"/><rect x="-32" y="-6" width="12" height="26" fill="#d9d2e3"/><rect x="20" y="-6" width="12" height="26" fill="#d9d2e3"/><path d="M-10 28 V32 M10 28 V32"/></g><circle cx="290" cy="705" r="28" fill="#ebe1cd" stroke="#2b2233" stroke-width="2.5" stroke-dasharray="6 5"/><g opacity="0.28" transform="translate(290.0,705.0) scale(0.656)" stroke="#2b2233" stroke-width="3" stroke-linejoin="round" stroke-linecap="round" fill="none"><rect x="-20" y="-10" width="40" height="38" fill="#d9d2e3"/><rect x="-14" y="-30" width="28" height="20" fill="#d9d2e3"/><rect x="-8" y="-24" width="16" height="6" fill="#2b2233"/><rect x="-32" y="-6" width="12" height="26" fill="#d9d2e3"/><rect x="20" y="-6" width="12" height="26" fill="#d9d2e3"/><path d="M-10 28 V32 M10 28 V32"/></g><circle cx="360" cy="705" r="28" fill="#ebe1cd" stroke="#2b2233" stroke-width="2.5" stroke-dasharray="6 5"/><g opacity="0.28" transform="translate(360.0,705.0) scale(0.656)" stroke="#2b2233" stroke-width="3" stroke-linejoin="round" stroke-linecap="round" fill="none"><rect x="-20" y="-10" width="40" height="38" fill="#d9d2e3"/><rect x="-14" y="-30" width="28" height="20" fill="#d9d2e3"/><rect x="-8" y="-24" width="16" height="6" fill="#2b2233"/><rect x="-32" y="-6" width="12" height="26" fill="#d9d2e3"/><rect x="20" y="-6" width="12" height="26" fill="#d9d2e3"/><path d="M-10 28 V32 M10 28 V32"/></g><circle cx="430" cy="705" r="28" fill="#ebe1cd" stroke="#2b2233" stroke-width="2.5" stroke-dasharray="6 5"/><g opacity="0.28" transform="translate(430.0,705.0) scale(0.656)" stroke="#2b2233" stroke-width="3" stroke-linejoin="round" stroke-linecap="round" fill="none"><rect x="-20" y="-10" width="40" height="38" fill="#d9d2e3"/><rect x="-14" y="-30" width="28" height="20" fill="#d9d2e3"/><rect x="-8" y="-24" width="16" height="6" fill="#2b2233"/><rect x="-32" y="-6" width="12" height="26" fill="#d9d2e3"/><rect x="20" y="-6" width="12" height="26" fill="#d9d2e3"/><path d="M-10 28 V32 M10 28 V32"/></g>
<g transform="translate(90.0,790.0) scale(0.625)" stroke="#2b2233" stroke-width="3" stroke-linejoin="round" stroke-linecap="round" fill="none"><path d="M-22 26 L0 -26 L22 26 Z" fill="#c9b79a"/><rect x="-6" y="-34" width="12" height="14" fill="#8a7a62"/><path d="M-10 8 H10" fill="none"/></g><text x="125" y="798" font-size="22" font-weight="bold" text-anchor="start" fill="#2b2233">Extractor x5</text>
<circle cx="310" cy="790" r="15" fill="#ebe1cd" stroke="#2b2233" stroke-width="2.5" stroke-dasharray="6 5"/><circle cx="348" cy="790" r="15" fill="#ebe1cd" stroke="#2b2233" stroke-width="2.5" stroke-dasharray="6 5"/><circle cx="386" cy="790" r="15" fill="#ebe1cd" stroke="#2b2233" stroke-width="2.5" stroke-dasharray="6 5"/><circle cx="424" cy="790" r="15" fill="#ebe1cd" stroke="#2b2233" stroke-width="2.5" stroke-dasharray="6 5"/><circle cx="462" cy="790" r="15" fill="#ebe1cd" stroke="#2b2233" stroke-width="2.5" stroke-dasharray="6 5"/>
<g transform="translate(90.0,865.0) scale(0.625)" stroke="#2b2233" stroke-width="3" stroke-linejoin="round" stroke-linecap="round" fill="none"><rect x="-28" y="-6" width="56" height="32" fill="#c9b79a"/><rect x="8" y="-30" width="12" height="26" fill="#8a7a62"/><rect x="-18" y="6" width="12" height="12" fill="#f4ead7"/><rect x="2" y="6" width="12" height="12" fill="#f4ead7"/></g><text x="125" y="873" font-size="22" font-weight="bold" text-anchor="start" fill="#2b2233">Factory x5</text>
<circle cx="310" cy="865" r="15" fill="#ebe1cd" stroke="#2b2233" stroke-width="2.5" stroke-dasharray="6 5"/><circle cx="348" cy="865" r="15" fill="#ebe1cd" stroke="#2b2233" stroke-width="2.5" stroke-dasharray="6 5"/><circle cx="386" cy="865" r="15" fill="#ebe1cd" stroke="#2b2233" stroke-width="2.5" stroke-dasharray="6 5"/><circle cx="424" cy="865" r="15" fill="#ebe1cd" stroke="#2b2233" stroke-width="2.5" stroke-dasharray="6 5"/><circle cx="462" cy="865" r="15" fill="#ebe1cd" stroke="#2b2233" stroke-width="2.5" stroke-dasharray="6 5"/>
<g transform="translate(90.0,940.0) scale(0.625)" stroke="#2b2233" stroke-width="3" stroke-linejoin="round" stroke-linecap="round" fill="none"><path d="M-16 28 L-16 -12 L-22 -12 L-22 -28 L-12 -28 L-12 -20 L-4 -20 L-4 -28 L4 -28 L4 -20 L12 -20 L12 -28 L22 -28 L22 -12 L16 -12 L16 28 Z" fill="#a89c8a"/><path d="M-4 28 V14 Q0 8 4 14 V28" fill="#2b2233"/></g><text x="125" y="948" font-size="22" font-weight="bold" text-anchor="start" fill="#2b2233">Tower x5</text>
<circle cx="310" cy="940" r="15" fill="#ebe1cd" stroke="#2b2233" stroke-width="2.5" stroke-dasharray="6 5"/><circle cx="348" cy="940" r="15" fill="#ebe1cd" stroke="#2b2233" stroke-width="2.5" stroke-dasharray="6 5"/><circle cx="386" cy="940" r="15" fill="#ebe1cd" stroke="#2b2233" stroke-width="2.5" stroke-dasharray="6 5"/><circle cx="424" cy="940" r="15" fill="#ebe1cd" stroke="#2b2233" stroke-width="2.5" stroke-dasharray="6 5"/><circle cx="462" cy="940" r="15" fill="#ebe1cd" stroke="#2b2233" stroke-width="2.5" stroke-dasharray="6 5"/>
<rect x="510" y="190" width="945" height="150" rx="10" fill="#fffaf0" stroke="#2b2233" stroke-width="3"/><text x="530" y="230" font-size="30" font-weight="bold" text-anchor="start" fill="#c0392b">Start of your turn</text>
<g transform="translate(600.0,285.0) scale(1.000)" stroke="#2b2233" stroke-width="3" stroke-linejoin="round" stroke-linecap="round" fill="none"><circle cx="-6" cy="6" r="22" fill="#e6c455"/><circle cx="-6" cy="6" r="14" fill="none"/><path d="M18 -26 V-6 M8 -16 H28" stroke-width="5" fill="none"/></g>
<text x="660" y="282" font-size="30" font-weight="bold" text-anchor="start" fill="#2b2233">Gain 10 Credits.</text>
<text x="660" y="316" font-size="24" font-weight="normal" text-anchor="start" fill="#2b2233">Take the coins off your buildings (they can work again).</text>
<rect x="510" y="360" width="945" height="410" rx="10" fill="#fffaf0" stroke="#2b2233" stroke-width="3"/><text x="530" y="400" font-size="30" font-weight="bold" text-anchor="start" fill="#c0392b">Then, in any order</text>
<g transform="translate(570.0,435.0) scale(0.781)" stroke="#2b2233" stroke-width="3" stroke-linejoin="round" stroke-linecap="round" fill="none"><path d="M-22 26 L0 -26 L22 26 Z" fill="#c9b79a"/><rect x="-6" y="-34" width="12" height="14" fill="#8a7a62"/><path d="M-10 8 H10" fill="none"/></g>
<text x="620" y="444" font-size="24" font-weight="normal" text-anchor="start" fill="#2b2233">Extract: 1 token of the tile&#x27;s resource</text>
<g transform="translate(1330.0,431.0) scale(0.594)" stroke="#2b2233" stroke-width="3" stroke-linejoin="round" stroke-linecap="round" fill="none"><circle r="26" fill="#e6c455"/><circle r="17" fill="none"/><path d="M0 -10 V10 M-5 -5 H5 M-5 5 H5" stroke-width="3.5"/></g><text x="1356.6" y="442.4" font-size="30.400000000000002" font-weight="bold" text-anchor="start" fill="#2b2233">1</text>
<g transform="translate(1420.0,435.0) scale(0.625)" stroke="#2b2233" stroke-width="3" stroke-linejoin="round" stroke-linecap="round" fill="none"><circle r="28" fill="none" stroke-dasharray="5 4"/><circle r="17" fill="#e6c455"/><circle r="10" fill="none" stroke-width="2"/></g>
<g transform="translate(570.0,501.0) scale(0.781)" stroke="#2b2233" stroke-width="3" stroke-linejoin="round" stroke-linecap="round" fill="none"><rect x="-28" y="-6" width="56" height="32" fill="#c9b79a"/><rect x="8" y="-30" width="12" height="26" fill="#8a7a62"/><rect x="-18" y="6" width="12" height="12" fill="#f4ead7"/><rect x="2" y="6" width="12" height="12" fill="#f4ead7"/></g>
<text x="620" y="510" font-size="24" font-weight="normal" text-anchor="start" fill="#2b2233">Factory: 1 iron = 2 Bots,  or iron + crystal = 1 Mech</text>
<g transform="translate(1330.0,497.0) scale(0.594)" stroke="#2b2233" stroke-width="3" stroke-linejoin="round" stroke-linecap="round" fill="none"><circle r="26" fill="#e6c455"/><circle r="17" fill="none"/><path d="M0 -10 V10 M-5 -5 H5 M-5 5 H5" stroke-width="3.5"/></g><text x="1356.6" y="508.4" font-size="30.400000000000002" font-weight="bold" text-anchor="start" fill="#2b2233">1</text>
<g transform="translate(1420.0,501.0) scale(0.625)" stroke="#2b2233" stroke-width="3" stroke-linejoin="round" stroke-linecap="round" fill="none"><circle r="28" fill="none" stroke-dasharray="5 4"/><circle r="17" fill="#e6c455"/><circle r="10" fill="none" stroke-width="2"/></g>
<g transform="translate(570.0,567.0) scale(0.781)" stroke="#2b2233" stroke-width="3" stroke-linejoin="round" stroke-linecap="round" fill="none"><path d="M-28 0 H12" fill="none" stroke-width="5"/><path d="M8 -18 L28 0 L8 18 Z" fill="#a9d07c"/></g>
<text x="620" y="576" font-size="24" font-weight="normal" text-anchor="start" fill="#2b2233">Move: 1, 3, 6, 10 Credits for 1-4 steps (per piece)</text>
<g transform="translate(1330.0,563.0) scale(0.594)" stroke="#2b2233" stroke-width="3" stroke-linejoin="round" stroke-linecap="round" fill="none"><circle r="26" fill="#e6c455"/><circle r="17" fill="none"/><path d="M0 -10 V10 M-5 -5 H5 M-5 5 H5" stroke-width="3.5"/></g><text x="1356.6" y="574.4" font-size="30.400000000000002" font-weight="bold" text-anchor="start" fill="#2b2233">1+</text>
<g transform="translate(570.0,633.0) scale(0.781)" stroke="#2b2233" stroke-width="3" stroke-linejoin="round" stroke-linecap="round" fill="none"><path d="M-28 -10 H18" fill="none" stroke-width="5"/><path d="M12 -26 L30 -10 L12 6 Z" fill="#a9d07c"/><path d="M28 12 H-18" fill="none" stroke-width="5"/><path d="M-12 -4 L-30 12 L-12 28 Z" fill="#78b9dc"/></g>
<text x="620" y="642" font-size="24" font-weight="normal" text-anchor="start" fill="#2b2233">Trade at your Dock or a Port (current price)</text>
<g transform="translate(1330.0,629.0) scale(0.594)" stroke="#2b2233" stroke-width="3" stroke-linejoin="round" stroke-linecap="round" fill="none"><circle r="26" fill="#e6c455"/><circle r="17" fill="none"/><path d="M0 -10 V10 M-5 -5 H5 M-5 5 H5" stroke-width="3.5"/></g><text x="1356.6" y="640.4" font-size="30.400000000000002" font-weight="bold" text-anchor="start" fill="#2b2233">1</text>
<g transform="translate(1420.0,633.0) scale(0.625)" stroke="#2b2233" stroke-width="3" stroke-linejoin="round" stroke-linecap="round" fill="none"><circle r="28" fill="none" stroke-dasharray="5 4"/><circle r="17" fill="#e6c455"/><circle r="10" fill="none" stroke-width="2"/></g>
<g transform="translate(570.0,699.0) scale(0.781)" stroke="#2b2233" stroke-width="3" stroke-linejoin="round" stroke-linecap="round" fill="none"><rect x="-20" y="-28" width="40" height="56" rx="3" fill="#f4ead7"/><path d="M-12 -14 H12 M-12 -4 H12" fill="none"/><polygon points="0.0,-9.0 2.4,-3.2 8.6,-2.8 3.8,1.2 5.3,7.3 0.0,4.0 -5.3,7.3 -3.8,1.2 -8.6,-2.8 -2.4,-3.2" fill="#6d3a8c" transform="translate(0 14)"/></g>
<text x="620" y="708" font-size="24" font-weight="normal" text-anchor="start" fill="#2b2233">Buy a Mission (+1 for each you have bought)</text>
<g transform="translate(1330.0,695.0) scale(0.594)" stroke="#2b2233" stroke-width="3" stroke-linejoin="round" stroke-linecap="round" fill="none"><circle r="26" fill="#e6c455"/><circle r="17" fill="none"/><path d="M0 -10 V10 M-5 -5 H5 M-5 5 H5" stroke-width="3.5"/></g><text x="1356.6" y="706.4" font-size="30.400000000000002" font-weight="bold" text-anchor="start" fill="#2b2233">5</text>
<text x="540" y="755" font-size="20" font-weight="normal" text-anchor="start" fill="#7d7388">A coin on a building or post = used this turn. Take coins off at the start of your turn.</text>
<rect x="510" y="790" width="470" height="230" rx="10" fill="#fffaf0" stroke="#2b2233" stroke-width="3"/><text x="530" y="830" font-size="30" font-weight="bold" text-anchor="start" fill="#c0392b">Build (iron on the tile)</text>
<g transform="translate(560.0,880.0) scale(0.875)" stroke="#2b2233" stroke-width="3" stroke-linejoin="round" stroke-linecap="round" fill="none"><path d="M-22 26 L0 -26 L22 26 Z" fill="#c9b79a"/><rect x="-6" y="-34" width="12" height="14" fill="#8a7a62"/><path d="M-10 8 H10" fill="none"/></g>
<g transform="translate(546.0,950.0) scale(0.562)" stroke="#2b2233" stroke-width="3" stroke-linejoin="round" stroke-linecap="round" fill="none"><rect x="-22" y="-12" width="44" height="32" fill="#8d8d96"/><path d="M-22 -12 L-12 -26 L32 -26 L22 -12 Z" fill="#b4b4be"/><path d="M22 -12 L32 -26 L32 6 L22 20 Z" fill="#6f6f78"/></g><text x="568" y="960" font-size="28" font-weight="bold" text-anchor="start" fill="#2b2233">x1</text>
<g transform="translate(710.0,880.0) scale(0.875)" stroke="#2b2233" stroke-width="3" stroke-linejoin="round" stroke-linecap="round" fill="none"><rect x="-28" y="-6" width="56" height="32" fill="#c9b79a"/><rect x="8" y="-30" width="12" height="26" fill="#8a7a62"/><rect x="-18" y="6" width="12" height="12" fill="#f4ead7"/><rect x="2" y="6" width="12" height="12" fill="#f4ead7"/></g>
<g transform="translate(696.0,950.0) scale(0.562)" stroke="#2b2233" stroke-width="3" stroke-linejoin="round" stroke-linecap="round" fill="none"><rect x="-22" y="-12" width="44" height="32" fill="#8d8d96"/><path d="M-22 -12 L-12 -26 L32 -26 L22 -12 Z" fill="#b4b4be"/><path d="M22 -12 L32 -26 L32 6 L22 20 Z" fill="#6f6f78"/></g><text x="718" y="960" font-size="28" font-weight="bold" text-anchor="start" fill="#2b2233">x2</text>
<g transform="translate(860.0,880.0) scale(0.875)" stroke="#2b2233" stroke-width="3" stroke-linejoin="round" stroke-linecap="round" fill="none"><path d="M-16 28 L-16 -12 L-22 -12 L-22 -28 L-12 -28 L-12 -20 L-4 -20 L-4 -28 L4 -28 L4 -20 L12 -20 L12 -28 L22 -28 L22 -12 L16 -12 L16 28 Z" fill="#a89c8a"/><path d="M-4 28 V14 Q0 8 4 14 V28" fill="#2b2233"/></g>
<g transform="translate(846.0,950.0) scale(0.562)" stroke="#2b2233" stroke-width="3" stroke-linejoin="round" stroke-linecap="round" fill="none"><rect x="-22" y="-12" width="44" height="32" fill="#8d8d96"/><path d="M-22 -12 L-12 -26 L32 -26 L22 -12 Z" fill="#b4b4be"/><path d="M22 -12 L32 -26 L32 6 L22 20 Z" fill="#6f6f78"/></g><text x="868" y="960" font-size="28" font-weight="bold" text-anchor="start" fill="#2b2233">x2</text>
<rect x="1000" y="790" width="455" height="230" rx="10" fill="#fffaf0" stroke="#2b2233" stroke-width="3"/><text x="1020" y="830" font-size="30" font-weight="bold" text-anchor="start" fill="#c0392b">Fight</text>
<g transform="translate(1050.0,850.0) scale(0.625)" stroke="#2b2233" stroke-width="3" stroke-linejoin="round" stroke-linecap="round" fill="none"><circle cy="6" r="22" fill="#d9d2e3"/><path d="M0 -16 V-24"/><circle cy="-27" r="4" fill="#2b2233"/><circle cx="-8" cy="4" r="4" fill="#2b2233"/><circle cx="8" cy="4" r="4" fill="#2b2233"/><path d="M-7 15 H7" fill="none"/></g><text x="1080" y="860" font-size="26" font-weight="bold" text-anchor="start" fill="#2b2233">power 1</text>
<g transform="translate(1230.0,850.0) scale(0.625)" stroke="#2b2233" stroke-width="3" stroke-linejoin="round" stroke-linecap="round" fill="none"><rect x="-20" y="-10" width="40" height="38" fill="#d9d2e3"/><rect x="-14" y="-30" width="28" height="20" fill="#d9d2e3"/><rect x="-8" y="-24" width="16" height="6" fill="#2b2233"/><rect x="-32" y="-6" width="12" height="26" fill="#d9d2e3"/><rect x="20" y="-6" width="12" height="26" fill="#d9d2e3"/><path d="M-10 28 V32 M10 28 V32"/></g><text x="1260" y="860" font-size="26" font-weight="bold" text-anchor="start" fill="#2b2233">power 5</text>
<g transform="translate(1040.0,905.0) scale(0.688)" stroke="#2b2233" stroke-width="3" stroke-linejoin="round" stroke-linecap="round" fill="none"><rect x="4" y="-16" width="26" height="32" fill="#d9d2e3"/><path d="M-30 0 H-4" fill="none" stroke-width="5"/><path d="M-8 -14 L8 0 L-8 14 Z" fill="#c0392b"/></g><text x="1075" y="913" font-size="22" font-weight="normal" text-anchor="start" fill="#2b2233">push: 2 x defenders</text>
<g transform="translate(1040.0,950.0) scale(0.688)" stroke="#2b2233" stroke-width="3" stroke-linejoin="round" stroke-linecap="round" fill="none"><path d="M-26 10 Q-32 -8 -14 -14 Q-10 -30 6 -22 Q26 -26 24 -6 Q34 8 18 14 Q12 28 -6 20 Q-22 28 -26 10 Z" fill="#d9d2e3"/><path d="M-8 -6 L8 10 M8 -6 L-8 10" stroke-width="4" fill="none"/></g><text x="1075" y="958" font-size="22" font-weight="normal" text-anchor="start" fill="#2b2233">kill: 3 x defenders</text>
<g transform="translate(1385.0,915.0) scale(0.688)" stroke="#2b2233" stroke-width="3" stroke-linejoin="round" stroke-linecap="round" fill="none"><path d="M-16 28 L-16 -12 L-22 -12 L-22 -28 L-12 -28 L-12 -20 L-4 -20 L-4 -28 L4 -28 L4 -20 L12 -20 L12 -28 L22 -28 L22 -12 L16 -12 L16 28 Z" fill="#a89c8a"/><path d="M-4 28 V14 Q0 8 4 14 V28" fill="#2b2233"/></g><text x="1385" y="960" font-size="20" font-weight="bold" text-anchor="middle" fill="#2b2233">+1 each</text>
<text x="1030" y="1003" font-size="22" font-weight="bold" text-anchor="start" fill="#2b2233">Win: 5 VP, only from Missions</text>
</svg>