<svg xmlns="http://www.w3.org/2000/svg" viewBox="0 0 690 940" width="69.0mm" height="94.0mm" font-family="DejaVu Sans, Arial, sans-serif">
<title>Mission L1-08 Big Army 6</title>
<rect id="bleed" x="0" y="0" width="690" height="940" fill="#2f7f79"/>
<rect id="trim" x="30" y="30" width="630" height="880" rx="26" fill="#f4ead7" stroke="#2b2233" stroke-width="4"/>
<rect x="54" y="54" width="582" height="96" rx="8" fill="#2f7f79"/>
<text x="345.0" y="120" text-anchor="middle" font-size="46" font-weight="bold" fill="#f4ead7">Big Army 6</text>
<g id="art-slot"><rect x="54" y="170" width="582" height="380" rx="8" fill="#ebe1cd" stroke="#2b2233" stroke-width="3" stroke-dasharray="14 8"/>
<text class="placeholder" x="345.0" y="370" text-anchor="middle" font-size="26" fill="#9a8f7c">ART SLOT 582 x 380</text></g>
<rect x="54" y="570" width="582" height="150" rx="8" fill="#fffaf0" stroke="#2b2233" stroke-width="3"/>
<g transform="translate(114.24,656.04) scale(0.9199999999999999)" stroke="#2b2233" stroke-width="3" stroke-linejoin="round" fill="none"><circle cx="0" cy="6" r="22" fill="#d9d2e3"/><line x1="0" y1="-16" x2="0" y2="-28"/><circle cx="0" cy="-30" r="4" fill="#2b2233"/><circle cx="-8" cy="4" r="4" fill="#2b2233"/><circle cx="8" cy="4" r="4" fill="#2b2233"/></g><g transform="translate(163.92000000000002,645) scale(1.0733333333333333)" stroke="#2b2233" stroke-width="3" stroke-linejoin="round" fill="none"><rect x="-20" y="-12" width="40" height="38" fill="#d9d2e3"/><rect x="-14" y="-32" width="28" height="20" fill="#d9d2e3"/><rect x="-8" y="-26" width="16" height="6" fill="#2b2233"/><rect x="-32" y="-8" width="12" height="26" fill="#d9d2e3"/><rect x="20" y="-8" width="12" height="26" fill="#d9d2e3"/></g>
<text x="240" y="678" font-size="92" font-weight="bold" fill="#2b2233">6</text>
<text x="74" y="760" font-size="28" fill="#2b2233">Have 6 pieces (bots and mechs)</text>
<text x="74" y="794" font-size="28" fill="#2b2233">on the map.</text>
<circle cx="582" cy="828" r="48" fill="#2f7f79" stroke="#2b2233" stroke-width="4"/>
<text x="582" y="844" text-anchor="middle" font-size="52" font-weight="bold" fill="#f4ead7">1</text>
<text x="582" y="882" text-anchor="middle" font-size="18" fill="#2b2233">VP</text>
<text x="54" y="880" font-size="20" fill="#7d7388">Level 1  -  08/20</text>
</svg>