<svg xmlns="http://www.w3.org/2000/svg" viewBox="-36.14 -41.50 72.28 83.00" width="181" height="208" font-family="DejaVu Sans, Arial, sans-serif"><title>L1-01</title><polygon points="34.6,20.0 0.0,40.0 -34.6,20.0 -34.6,-20.0 -0.0,-40.0 34.6,-20.0" fill="#c3c6cc" stroke="#2b2233" stroke-width="1.6"/><clipPath id="c_empty"><polygon points="30.3,17.5 0.0,35.0 -30.3,17.5 -30.3,-17.5 -0.0,-35.0 30.3,-17.5"/></clipPath><g clip-path="url(#c_empty)"><ellipse cx="-18" cy="24" rx="5" ry="3.4" fill="none" stroke="#8f929a" stroke-width="1.3"/><ellipse cx="-6" cy="30" rx="5" ry="3.4" fill="none" stroke="#8f929a" stroke-width="1.3"/><ellipse cx="8" cy="28" rx="5" ry="3.4" fill="none" stroke="#8f929a" stroke-width="1.3"/><ellipse cx="18" cy="24" rx="5" ry="3.4" fill="none" stroke="#8f929a" stroke-width="1.3"/><ellipse cx="-24" cy="10" rx="5" ry="3.4" fill="none" stroke="#8f929a" stroke-width="1.3"/><ellipse cx="24" cy="8" rx="5" ry="3.4" fill="none" stroke="#8f929a" stroke-width="1.3"/><ellipse cx="-2" cy="18" rx="5" ry="3.4" fill="none" stroke="#8f929a" stroke-width="1.3"/><g stroke="#2b2233" stroke-width="1.2"><rect x="-24" y="-24" width="12" height="12" fill="#b3b6bd"/><path d="M-24 -18 h12 M-18 -24 v6 M-18 -12 v-6" fill="none"/></g></g><line x1="34.6" y1="0.0" x2="18.0" y2="0.0" stroke="#6b5a3e" stroke-width="6.4"/><line x1="34.6" y1="0.0" x2="18.0" y2="0.0" stroke="#e7d9b5" stroke-width="3.6"/><line x1="17.3" y1="-30.0" x2="9.0" y2="-15.6" stroke="#6b5a3e" stroke-width="6.4"/><line x1="17.3" y1="-30.0" x2="9.0" y2="-15.6" stroke="#e7d9b5" stroke-width="3.6"/><line x1="-17.3" y1="-30.0" x2="-9.0" y2="-15.6" stroke="#6b5a3e" stroke-width="6.4"/><line x1="-17.3" y1="-30.0" x2="-9.0" y2="-15.6" stroke="#e7d9b5" stroke-width="3.6"/><line x1="-34.6" y1="0.0" x2="-18.0" y2="0.0" stroke="#6b5a3e" stroke-width="6.4"/><line x1="-34.6" y1="0.0" x2="-18.0" y2="0.0" stroke="#e7d9b5" stroke-width="3.6"/><line x1="-17.3" y1="30.0" x2="-9.0" y2="15.6" stroke="#6b5a3e" stroke-width="6.4"/><line x1="-17.3" y1="30.0" x2="-9.0" y2="15.6" stroke="#e7d9b5" stroke-width="3.6"/><line x1="17.3" y1="30.0" x2="9.0" y2="15.6" stroke="#6b5a3e" stroke-width="6.4"/><line x1="17.3" y1="30.0" x2="9.0" y2="15.6" stroke="#e7d9b5" stroke-width="3.6"/><rect x="-23" y="-16" width="22" height="16" fill="#ebe1cd" stroke="#2b2233" stroke-width="1.2" stroke-dasharray="3"/><rect x="1" y="-16" width="22" height="16" fill="#ebe1cd" stroke="#2b2233" stroke-width="1.2" stroke-dasharray="3"/></svg>