<svg xmlns="http://www.w3.org/2000/svg" viewBox="-36.14 -41.50 72.28 83.00" width="181" height="208" font-family="DejaVu Sans, Arial, sans-serif"><title>L2-03</title><polygon points="34.6,20.0 0.0,40.0 -34.6,20.0 -34.6,-20.0 -0.0,-40.0 34.6,-20.0" fill="#9fd0e6" stroke="#2b2233" stroke-width="1.6"/><clipPath id="c_crystal"><polygon points="30.3,17.5 0.0,35.0 -30.3,17.5 -30.3,-17.5 -0.0,-35.0 30.3,-17.5"/></clipPath><g clip-path="url(#c_crystal)"><path d="M-16 22 l3 4 l-3 4 l-3 -4 z" fill="#d9eef8" stroke="#2b2233" stroke-width="0.8"/><path d="M14 24 l3 4 l-3 4 l-3 -4 z" fill="#d9eef8" stroke="#2b2233" stroke-width="0.8"/><path d="M24 6 l3 4 l-3 4 l-3 -4 z" fill="#d9eef8" stroke="#2b2233" stroke-width="0.8"/><g stroke="#2b2233" stroke-width="1.3" stroke-linejoin="round"><polygon points="-22,-10 -17,-28 -12,-10 -17,-6" fill="#4f9fc9"/><polygon points="-14,-12 -9,-24 -4,-12 -9,-8" fill="#78b9dc"/><polygon points="-30,-8 -27,-20 -23,-8" fill="#78b9dc"/></g></g><line x1="34.6" y1="0.0" x2="18.0" y2="0.0" stroke="#6b5a3e" stroke-width="6.4"/><line x1="34.6" y1="0.0" x2="18.0" y2="0.0" stroke="#e7d9b5" stroke-width="3.6"/><g transform="translate(15.3,-26.5) rotate(30.0)"><defs><clipPath id="blk_1"><rect x="-11" y="-3" width="22" height="6" rx="1"/></clipPath></defs><rect x="-11" y="-3" width="22" height="6" rx="1" fill="#f1c40f" stroke="#1a1a1a" stroke-width="1.2"/><g clip-path="url(#blk_1)"><line x1="-14" y1="-4" x2="-8" y2="4" stroke="#1a1a1a" stroke-width="3"/><line x1="-7" y1="-4" x2="-1" y2="4" stroke="#1a1a1a" stroke-width="3"/><line x1="0" y1="-4" x2="6" y2="4" stroke="#1a1a1a" stroke-width="3"/><line x1="7" y1="-4" x2="13" y2="4" stroke="#1a1a1a" stroke-width="3"/></g><rect x="-11" y="-3" width="22" height="6" rx="1" fill="none" stroke="#1a1a1a" stroke-width="1.2"/><rect x="-9.5" y="2.5" width="2.5" height="2.5" fill="#2c2c2c"/><rect x="7" y="2.5" width="2.5" height="2.5" fill="#2c2c2c"/></g><line x1="-17.3" y1="-30.0" x2="-9.0" y2="-15.6" stroke="#6b5a3e" stroke-width="6.4"/><line x1="-17.3" y1="-30.0" x2="-9.0" y2="-15.6" stroke="#e7d9b5" stroke-width="3.6"/><line x1="-34.6" y1="0.0" x2="-18.0" y2="0.0" stroke="#6b5a3e" stroke-width="6.4"/><line x1="-34.6" y1="0.0" x2="-18.0" y2="0.0" stroke="#e7d9b5" stroke-width="3.6"/><line x1="-17.3" y1="30.0" x2="-9.0" y2="15.6" stroke="#6b5a3e" stroke-width="6.4"/><line x1="-17.3" y1="30.0" x2="-9.0" y2="15.6" stroke="#e7d9b5" stroke-width="3.6"/><line x1="17.3" y1="30.0" x2="9.0" y2="15.6" stroke="#6b5a3e" stroke-width="6.4"/><line x1="17.3" y1="30.0" x2="9.0" y2="15.6" stroke="#e7d9b5" stroke-width="3.6"/><rect x="-11" y="-16" width="22" height="16" fill="#ebe1cd" stroke="#2b2233" stroke-width="1.2" stroke-dasharray="3"/></svg>